<?xml version="1.0" encoding="utf-8"?>
<!-- Generator: Adobe Illustrator 27.8.1, SVG Export Plug-In . SVG Version: 6.00 Build 0)  -->
<svg version="1.1" baseProfile="tiny" id="Layer_1" xmlns="http://www.w3.org/2000/svg" xmlns:xlink="http://www.w3.org/1999/xlink"
	 x="0px" y="0px" viewBox="0 0 100 100" overflow="visible" xml:space="preserve">
<g>
	<path fill="#BE1E2D" d="M5.81,23.39c1.21,0.47,2.23,0.23,3.23-0.14c1.97-0.73,3.66-1.93,5.24-3.32c2.75-2.43,5.13-5.21,6.77-8.59
		c0.43-0.88,0.73-1.85,1.01-2.8c0.26-0.89,0.31-1.81-0.05-2.74c6.21,6.11,12.41,12.21,18.66,18.36c-0.45,0.5-0.88,0.97-1.34,1.47
		c1.56,2.04,3.09,4.04,4.67,6.11c-1.5,0.46-2.92,0.89-4.43,1.35c0.29,0.37,0.52,0.69,0.77,1c1.56,1.91,3.12,3.83,4.71,5.73
		c0.12,0.14,0.44,0.18,0.65,0.14c2.94-0.5,5.88-1.01,8.82-1.56c0.42-0.08,0.69,0,1,0.31c3.12,3.11,6.25,6.22,9.39,9.31
		c6.26,6.15,12.53,12.3,18.8,18.45c1.01,1,1.98,2.06,3.05,2.98c1.39,1.18,1.88,2.75,2.07,4.48c0.29,2.74-0.42,5.26-1.79,7.57
		c-1.97,3.35-4.66,5.85-8.29,7.11c-2.14,0.74-4.3,0.79-6.44-0.07c-0.36-0.14-0.71-0.37-0.99-0.64c-3.57-3.49-7.12-6.99-10.67-10.48
		c-7.81-7.68-15.61-15.37-23.43-23.05c-0.41-0.4-0.54-0.74-0.39-1.32c0.45-1.78,0.82-3.58,1.24-5.37c0.09-0.4,0.05-0.68-0.26-0.98
		c-2.03-1.97-4.04-3.96-6.06-5.95c-0.12-0.12-0.24-0.23-0.42-0.41c-0.29,1.27-0.56,2.44-0.86,3.73c-1.55-1.52-3.03-2.98-4.57-4.5
		c-0.42,0.86-0.79,1.61-1.19,2.41C18.42,35.79,12.18,29.66,5.81,23.39z M68.64,71.05c-0.02-0.04,0,0.02,0.04,0.06
		c3.53,3.48,7.07,6.96,10.6,10.45c0.27,0.26,0.5,0.21,0.68,0.01c0.64-0.68,1.25-1.39,1.87-2.1c0.27-0.3,0.15-0.53-0.11-0.79
		c-3.43-3.36-6.86-6.74-10.29-10.11c-0.12-0.11-0.25-0.21-0.31-0.26C70.28,69.25,69.47,70.14,68.64,71.05z"/>
	<path fill="#BE1E2D" d="M74.93,91.34c4.64,0.09,8.53-1.68,11.7-5.16c3.18-3.49,4.67-7.62,4.32-12.6c0.31,0.31,0.54,0.52,0.76,0.75
		c1.26,1.38,2.69,2.63,3.73,4.16c2.98,4.39,2.67,10.29-0.59,14.45c-3.98,5.08-11,6.08-16.04,2.18
		C77.41,94.02,76.23,92.62,74.93,91.34z"/>
	<path fill="#BE1E2D" d="M7.39,9.33c2.53-2.79,4.74-4.76,7.45-6.04c0.76-0.36,1.6-0.63,2.43-0.75c1.74-0.26,2.78,0.82,2.66,2.65
		c-0.11,1.71-0.79,3.22-1.59,4.68c-1.73,3.14-4.02,5.78-6.7,8.06c-1.51,1.28-3.11,2.42-4.98,3.06c-0.64,0.22-1.32,0.36-1.99,0.37
		c-1.31,0.02-2.07-0.78-2.15-2.13c-0.09-1.59,0.49-3,1.15-4.38C4.75,12.59,6.22,10.6,7.39,9.33z"/>
	<path fill="#BE1E2D" d="M57.64,9.13c0.14,1.31,0.28,2.52,0.37,3.73c0.02,0.28-0.14,0.6-0.28,0.86c-1.42,2.61-2.85,5.21-4.27,7.82
		c-0.29,0.53-0.59,1.05-0.83,1.6c-0.95,2.16-2.59,3.79-4.01,5.59c-0.85,1.07-1.73,2.11-2.65,3.23c-0.71-0.92-1.39-1.8-2.07-2.68
		c-0.83-1.07-1.64-2.15-2.47-3.22c-0.2-0.26-0.23-0.42,0.03-0.68c3.66-3.69,7.31-7.39,10.97-11.08c1.65-1.67,3.32-3.33,4.97-4.99
		C57.44,9.29,57.5,9.24,57.64,9.13z"/>
	<path fill="#BE1E2D" d="M15.86,65.05c3.5-7.71,6.96-15.33,10.44-22.99c0.18,0.14,0.34,0.24,0.47,0.37c0.92,0.9,1.85,1.8,2.74,2.73
		c0.13,0.14,0.22,0.45,0.18,0.64c-0.82,3.32-1.66,6.64-2.51,9.96c-0.05,0.2-0.15,0.41-0.29,0.55c-2.87,2.96-5.74,5.92-8.63,8.86
		c-0.13,0.13-0.36,0.24-0.53,0.22C17.13,65.31,16.55,65.18,15.86,65.05z"/>
	<path fill="#BE1E2D" d="M27.81,69.47c-0.54-0.21-1.02-0.41-1.55-0.62c1.96-8.57,3.91-17.11,5.88-25.75
		c1.24,1.22,2.36,2.42,3.58,3.49c0.77,0.67,0.98,1.29,0.71,2.34c-0.76,3.06-1.32,6.17-2.08,9.22c-0.22,0.9-0.8,1.71-1.28,2.52
		C31.35,63.59,29.6,66.49,27.81,69.47z"/>
	<path fill="#BE1E2D" d="M42,33.87c6.62-2,13.18-3.99,19.8-5.99c-0.2,0.87-0.31,1.68-0.6,2.41c-0.18,0.45-0.64,0.8-1.01,1.16
		c-1.86,1.79-3.72,3.56-5.6,5.33c-0.16,0.15-0.37,0.27-0.58,0.31c-2.6,0.47-5.21,0.93-7.82,1.37c-0.19,0.03-0.48-0.03-0.59-0.16
		C44.42,36.86,43.25,35.4,42,33.87z"/>
	<path fill="#BE1E2D" d="M45.73,11.15c0.58,0.86,1.09,1.61,1.58,2.38c0.1,0.16,0.15,0.44,0.09,0.63c-0.52,1.68-1.06,3.35-1.6,5.02
		c-0.05,0.14-0.11,0.3-0.21,0.41c-1.24,1.37-2.48,2.74-3.76,4.14c-0.55-0.54-1.07-1.06-1.64-1.61
		C42.02,18.5,43.85,14.87,45.73,11.15z"/>
	<path fill="#BE1E2D" d="M39.69,12.93c-1.12,1.23-2.15,2.37-3.2,3.49c-0.09,0.09-0.39,0.1-0.5,0.01c-0.33-0.26-0.61-0.58-0.92-0.88
		c-2.73-2.69-5.46-5.37-8.19-8.06c-0.13-0.13-0.26-0.25-0.39-0.38c0.02-0.04,0.05-0.07,0.07-0.11
		C30.91,8.96,35.25,10.92,39.69,12.93z"/>
	<path fill="#BE1E2D" d="M7.41,28.11c3.23,3.18,6.46,6.35,9.71,9.56c-1.14,1.25-2.24,2.47-3.41,3.75c-2.14-4.44-4.27-8.85-6.4-13.26
		C7.35,28.14,7.38,28.13,7.41,28.11z"/>
	<path fill="#BE1E2D" d="M16.09,46.99c2.3-1.88,4.53-3.7,6.79-5.55c0.46,0.45,0.89,0.85,1.29,1.29c0.09,0.1,0.12,0.37,0.05,0.49
		c-0.55,1.02-1.11,2.04-1.72,3.03c-0.16,0.26-0.46,0.48-0.74,0.58c-1.06,0.39-2.15,0.73-3.22,1.07c-0.15,0.05-0.34,0.04-0.48-0.02
		C17.42,47.61,16.81,47.32,16.09,46.99z"/>
	<path fill="#BE1E2D" d="M68.64,71.05c0.83-0.91,1.64-1.8,2.48-2.73c0.06,0.05,0.19,0.14,0.31,0.26c3.43,3.37,6.86,6.74,10.29,10.11
		c0.26,0.25,0.38,0.48,0.11,0.79c-0.62,0.7-1.23,1.42-1.87,2.1c-0.19,0.2-0.42,0.26-0.68-0.01c-3.53-3.49-7.07-6.97-10.6-10.45
		C68.64,71.07,68.62,71.01,68.64,71.05z"/>
</g>
</svg>
