<?xml version="1.0" encoding="utf-8"?>
<!-- Generator: Adobe Illustrator 24.1.2, SVG Export Plug-In . SVG Version: 6.00 Build 0)  -->
<svg version="1.1" id="Layer_1" xmlns="http://www.w3.org/2000/svg" xmlns:xlink="http://www.w3.org/1999/xlink" x="0px" y="0px"
	 width="100px" height="100px" viewBox="0 0 100 100" enable-background="new 0 0 100 100" xml:space="preserve">
<g>
	<path fill="#0000FF" d="M11.74,66.5c0.68-0.95,1.34-1.91,2.03-2.83c2.43-3.25,5.12-6.24,8.01-9.01
		c8.57-8.19,17.15-16.37,25.72-24.55c3.19-3.04,6.38-6.08,9.56-9.12c0.06-0.05,0.12-0.11,0.2-0.18c7.04,8.65,14.08,17.28,21.18,26
		c-0.07,0.04-0.15,0.07-0.21,0.12C72.08,52.82,65.9,58.71,59.72,64.6C54.3,69.77,48.88,74.94,43.45,80.1
		c-3.58,3.4-7.37,6.5-11.51,9.06c-0.32,0.2-0.65,0.38-0.96,0.59c-0.17,0.11-0.26,0.07-0.38-0.08c-2.55-3.13-5.1-6.26-7.65-9.39
		c-3.67-4.5-7.34-9-11-13.5C11.89,66.7,11.83,66.62,11.74,66.5z"/>
	<path fill="#0000FF" d="M27.23,91.79c-0.62,0.28-1.2,0.55-1.78,0.8c-2.28,0.98-4.62,1.75-7.05,2.14c-2.34,0.38-4.68,0.43-6.97-0.36
		c-3.66-1.26-5.74-3.99-6.29-8.08c-0.33-2.47,0.01-4.88,0.65-7.25C6.61,75.91,7.94,73,9.5,70.21c0.01-0.02,0.03-0.04,0.07-0.09
		C15.45,77.33,21.32,84.54,27.23,91.79z"/>
	<path fill="#0000FF" d="M70.81,7.9c1.02-0.97,2.02-1.92,3.04-2.9C80.9,13.66,87.94,22.3,95,30.96c-1.02,0.97-2.01,1.92-3.04,2.9
		C84.92,25.21,77.88,16.57,70.81,7.9z"/>
	<path fill="#0000FF" d="M59.23,18.99c1.02-0.97,8.66-8.47,9.68-9.45C75.96,18.2,83,26.84,90.06,35.5
		c-1.02,0.97-8.66,8.47-9.68,9.45C73.33,36.3,66.29,27.66,59.23,18.99z"/>
</g>
</svg>
