<?xml version="1.0" encoding="utf-8"?>
<!-- Generator: Adobe Illustrator 24.1.2, SVG Export Plug-In . SVG Version: 6.00 Build 0)  -->
<svg version="1.1" id="Layer_1" xmlns="http://www.w3.org/2000/svg" xmlns:xlink="http://www.w3.org/1999/xlink" x="0px" y="0px"
	 width="100px" height="100px" viewBox="0 0 100 100" enable-background="new 0 0 100 100" xml:space="preserve">
<path fill="#004C18" d="M92.17,25.78c1.37,1.51,1,2.04-0.58,2.01c-0.54-0.01-1.05,0.32-1.29,0.73c-0.42,0.71-0.4,1.81-0.94,2.39
	c-2,2.18-4.2,4.17-6.22,6.33c-0.72,0.77-1.44,0.84-2.88,0.03c-2.01-1.12-4.09-1.97-6.13-2.75c-0.94-0.36-2.23-0.69-2.73-0.31
	c-1.47,1.1-2.92,2.32-3.84,3.92c-1.86,3.23-3.2,6.88-5.06,10.11c-5.49,9.55-11.05,19.04-16.74,28.43c-1.8,2.96-4,5.61-7.22,7.2
	c-3.92,1.94-8.86,1.88-13.85,1.72c-2.57-0.08-5.51-0.93-7.36,0.47c-1.58,1.2-3.02,2.55-4.58,3.77c-1.44,1.14-2.06,3.42-5.34,2.03
	c-0.97-0.41-3.88-2.19-4.01-3.08c-0.26-1.76-0.9-3.67,0.45-4.77c1.62-1.31,3.03-2.87,4.32-4.51c1.11-1.41,1.92-2.97,1.76-5.36
	c-0.28-4.34-0.2-8.56,0.05-12.68c0.18-2.92,1.14-5.42,3.13-7.08c1.67-1.41,3.46-2.69,5.14-4.09c1.27-1.06,2.3-2.42,3.72-3.29
	c4.17-2.57,8.41-5.07,12.77-7.41c6.93-3.73,13.87-7.44,20.98-10.93c5.66-2.78,6.51-5.23,3.28-11.95c-0.31-0.65-0.94-1.33-1.09-1.94
	c-0.2-0.79-0.39-1.82-0.03-2.23c1.53-1.78,3.24-3.4,4.94-5.01c1.32-1.25,2.11-3.22,4.99-2.32c-0.06-0.42-0.08-0.67-0.12-0.93
	c-0.34-2.26,0.4-2.65,2.39-0.81c1.64,1.52,2.87,3.54,4.44,5.55c2.55,0.49,11.05,8.96,11.82,11.58
	C88.59,22.57,90.57,24.02,92.17,25.78z M60.94,11.39c-1.41,1.41-0.53,3.64,2.05,4.98c0.56,0.29,1.43,0.22,1.77-0.09
	c1.56-1.38,2.98-2.91,4.47-4.38c1-0.99-0.1-2.17-1.16-3.24c-1.08-1.08-2.26-2.16-3.24-1.15c-0.74,0.77-1.51,1.51-2.27,2.26
	C62.02,10.32,61.47,10.85,60.94,11.39z M87.71,30.62c1.06-0.84,0.38-1.94-0.79-3.15c-1.24-1.29-2.51-2.3-3.58-1.28
	c-1.47,1.41-2.88,2.87-4.33,4.3c-1.1,1.08,0.17,2.19,1.31,3.37c1.21,1.26,2.26,1.96,3.17,0.97c0.69-0.75,1.43-1.44,2.15-2.16
	C86.33,31.97,86.96,31.23,87.71,30.62z M71.01,24.31c-0.37-0.38-1.57-0.59-1.83-0.32c-0.28,0.28-0.09,1.49,0.28,1.83
	c0.52,0.49,1.4,0.56,2.48,0.93C71.57,25.69,71.5,24.81,71.01,24.31z M75.39,17.78c-0.27,0.27-0.13,1.35,0.23,1.72
	c0.45,0.47,1.68,0.97,1.89,0.77c0.34-0.32,0.11-1.22,0.13-2.31C76.55,17.85,75.66,17.51,75.39,17.78z M72.75,22.73
	c0.5,0.41,1.27,0.39,1.92,0.55c-0.21-0.72-0.23-1.53-0.69-2.14c-0.27-0.36-1.21-0.4-2.38-0.75C72.12,21.52,72.29,22.36,72.75,22.73z
	"/>
</svg>
