<?xml version="1.0" encoding="utf-8"?>
<!-- Generator: Adobe Illustrator 24.1.2, SVG Export Plug-In . SVG Version: 6.00 Build 0)  -->
<svg version="1.1" id="Layer_1" xmlns="http://www.w3.org/2000/svg" xmlns:xlink="http://www.w3.org/1999/xlink" x="0px" y="0px"
	 width="100px" height="100px" viewBox="0 0 100 100" enable-background="new 0 0 100 100" xml:space="preserve">
<g>
	<path fill="#9E005D" d="M44.85,35.17c0.35,4.84,4.22,6.65,7.44,9.67c-0.87,0.35-1.46,0.63-2.07,0.83c-0.39,0.13-0.82,0.18-1.23,0.2
		c-1.04,0.04-2.2,0.35-3.07-0.02c-0.73-0.32-1.14-1.42-1.63-2.22c-0.9-1.47-1.7-3-2.64-4.44c-0.58-0.89-0.37-1.49,0.29-2.2
		c2.21-2.35,4.41-4.72,6.51-7.16c0.45-0.53,0.51-1.4,0.76-2.11c-0.72,0.26-1.58,0.34-2.12,0.81c-2.16,1.82-4.25,3.73-6.31,5.67
		c-0.92,0.87-1.51,1.09-2.26-0.21c-3.27-5.64-6.61-11.24-9.93-16.86c-1.97-3.33-3.93-6.67-5.91-9.99c-0.29-0.49-0.7-0.91-1.09-1.34
		c-0.9-1.01-1.8-1.07-2.8-0.06C14.89,9.67,10.85,13.5,7.1,17.58c-0.99,1.08-1.14,2.93-1.7,4.42c-1,2.67,0.11,5.13,0.79,7.62
		c1.35,4.92,2.75,9.82,4.16,14.71c1.12,3.9,2.31,7.79,3.44,11.69c0.81,2.8,1.57,5.62,2.36,8.42c0.62,2.2,1.24,4.41,1.89,6.61
		c0.6,2.03,0.29,3.76-1.26,5.33c-1.8,1.82-3.6,3.67-5.15,5.7c-0.92,1.21-1.48,2.74-2.01,4.2c-0.63,1.72,0.33,3.13,1.71,3.76
		c0.97,0.44,2.41,0.25,3.51-0.08c3.62-1.07,6.03-3.86,8.53-6.46c1.18-1.23,2.55-1.87,4.17-1.82c1.02,0.03,2.04,0.38,3.03,0.67
		c6.48,1.91,12.94,3.89,19.43,5.76c6.44,1.85,12.92,3.58,19.37,5.38c0.75,0.21,1.51,0.42,2.21,0.75c3.1,1.47,6.14,0.5,9.14-0.26
		c0.95-0.24,1.85-0.99,2.57-1.7c3.56-3.48,7.05-7.03,10.56-10.55c1.55-1.55,1.57-2.35-0.22-3.67c-1.51-1.11-3.16-2.04-4.77-2.99
		c-3.83-2.24-7.67-4.45-11.51-6.68c-1.53-0.89-3.07-1.76-4.58-2.69c-2.27-1.39-4.49-2.86-6.78-4.22c-1.15-0.68-1.1-1.29-0.27-2.2
		c1.8-1.97,3.59-3.96,5.27-6.03c0.76-0.94,1.23-2.11,1.83-3.18c-0.11-0.09-0.22-0.18-0.33-0.27c-0.29,0.14-0.63,0.23-0.86,0.44
		c-2.84,2.54-5.68,5.07-8.48,7.66c-0.72,0.66-1.29,1.08-2.31,0.49c-2.07-1.2-4.23-2.23-6.28-3.45c-0.41-0.25-0.66-1.08-0.65-1.64
		c0.03-1.5,0.24-2.99,0.42-4.84c3.04,2.86,5.91,5.55,8.83,8.29c1.22-1.55,0.87-2.68,0-3.61c-1.79-1.91-3.73-3.67-5.48-5.6
		c-0.66-0.73-0.95-1.79-1.49-2.65c-0.27-0.43-0.68-0.79-1.07-1.13c-0.71-0.61-1.47-1.16-2.16-1.79c-0.5-0.45-0.86-1.05-1.36-1.5
		c-1.67-1.51-3.36-3-5.09-4.44C46.04,35.62,45.4,35.44,44.85,35.17z"/>
</g>
</svg>
