<?xml version="1.0" encoding="utf-8"?>
<!-- Generator: Adobe Illustrator 24.1.2, SVG Export Plug-In . SVG Version: 6.00 Build 0)  -->
<svg version="1.1" id="Layer_1" xmlns="http://www.w3.org/2000/svg" xmlns:xlink="http://www.w3.org/1999/xlink" x="0px" y="0px"
	 width="100px" height="100px" viewBox="0 0 100 100" enable-background="new 0 0 100 100" xml:space="preserve">
<g>
	<path fill="#BC2E02" d="M5,52.97c1.78,0.07,3.56,0.11,5.34,0.25c0.28,0.02,0.6,0.45,0.8,0.77c1.11,1.8,2.2,3.63,3.29,5.45
		c0.95,1.6,1.9,3.2,2.85,4.8c1,1.67,2,3.33,3,5c0.14,0.23,0.27,0.47,0.41,0.71c-0.03,0.04-0.06,0.08-0.1,0.11
		c-0.51-0.38-1.03-0.74-1.54-1.13c-0.95-0.72-1.89-1.46-2.84-2.19c-1.42-1.09-2.83-2.19-4.25-3.26c-1.21-0.92-2.45-1.81-3.66-2.72
		c-0.72-0.54-1.43-1.09-2.13-1.67c-0.16-0.13-0.25-0.42-0.3-0.66c-0.21-1.08-0.39-2.16-0.6-3.24C5.21,54.85,5.09,54.52,5,54.18
		C5,53.78,5,53.37,5,52.97z"/>
	<path fill="#BC2E02" d="M95,67.33c-0.61,0.26-1.22,0.51-1.82,0.8c-0.9,0.43-1.79,0.89-2.69,1.35c-0.79,0.41-1.57,0.84-2.36,1.24
		c-0.83,0.43-1.67,0.83-2.51,1.25c-0.22,0.11-0.43,0.25-0.8,0.46c0.25-0.68,0.43-1.2,0.63-1.7c0.56-1.42,1.13-2.85,1.7-4.26
		c0.67-1.65,1.44-3.26,2-4.96c0.31-0.93,0.9-0.6,1.34-0.67c1.18-0.19,2.39-0.18,3.59-0.29c0.47-0.04,0.6,0.19,0.61,0.7
		c0.05,1.67,0.13,3.34,0.2,5.02c0,0.08,0.06,0.16,0.1,0.24C95,66.78,95,67.06,95,67.33z"/>
	<path fill="#BC2E02" d="M62.96,39.76c0.09-0.56,0.17-1.13,0.28-1.69c0.18-0.89,0.38-1.78,0.56-2.67c0.29-1.44,0.57-2.89,0.87-4.33
		c0.33-1.58,0.69-3.16,1.02-4.75c0.25-1.25,0.45-2.51,0.7-3.76c0.22-1.1,0.51-2.19,0.74-3.29c0.25-1.19,0.44-2.4,0.68-3.59
		c0.23-1.16,0.5-2.3,0.73-3.46c0.22-1.09,0.4-2.19,0.6-3.28c0.07-0.37,0.27-0.56,0.53-0.75c1.41-1.02,2.81-2.07,4.31-3.18
		c0.2,0.65,0.4,1.26,0.58,1.89c0.35,1.2,0.69,2.39,1.01,3.6c0.05,0.2,0.06,0.47-0.01,0.65c-0.82,1.94-1.65,3.88-2.5,5.8
		c-0.81,1.84-1.65,3.65-2.45,5.49c-0.89,2.06-1.75,4.14-2.64,6.19c-0.52,1.21-1.1,2.38-1.63,3.58c-0.62,1.4-1.2,2.83-1.8,4.24
		c-0.48,1.12-0.98,2.23-1.47,3.35C63.03,39.78,63,39.77,62.96,39.76z"/>
	<path fill="#BC2E02" d="M36.72,43.05c-0.72-0.9-1.44-1.81-2.17-2.7c-0.74-0.9-1.51-1.76-2.24-2.66c-1.49-1.83-2.96-3.67-4.45-5.5
		c-0.36-0.44-0.15-0.94-0.09-1.37c0.14-1.01,0.43-1.99,0.62-2.99c0.18-0.96,0.32-1.93,0.48-2.9c0.02-0.15,0.09-0.28,0.13-0.43
		c1.42,0.6,2.82,1.19,4.21,1.79c0.39,0.17,0.77,0.49,1.17,0.52c0.54,0.04,0.62,0.47,0.67,0.88c0.19,1.43,0.32,2.88,0.5,4.31
		c0.14,1.19,0.32,2.38,0.47,3.57c0.19,1.48,0.35,2.96,0.55,4.43c0.08,0.58,0.21,1.16,0.28,1.74c0.05,0.38,0.04,0.77,0.06,1.15
		C36.85,42.96,36.78,43,36.72,43.05z"/>
	<path fill="#BC2E02" d="M87.82,50.04c-7.3,2.96-14.5,5.88-21.75,8.81c0.5-4.95,1-9.86,1.51-14.86c-3.52,0.97-6.99,1.92-10.49,2.88
		c-0.13-0.7-0.25-1.38-0.38-2.07c-0.16-0.83-0.34-1.65-0.5-2.47c-0.2-1.07-0.39-2.15-0.59-3.22c-0.15-0.81-0.32-1.61-0.47-2.42
		c-0.2-1.06-0.38-2.13-0.58-3.2c-0.15-0.8-0.33-1.58-0.48-2.38c-0.15-0.76-0.27-1.53-0.41-2.29c-0.09-0.49-0.21-0.96-0.29-1.45
		c-0.13-0.74-0.24-1.49-0.38-2.23c-0.09-0.51-0.23-1-0.33-1.51c-0.14-0.76-0.26-1.53-0.4-2.3c-0.15-0.81-0.33-1.61-0.48-2.42
		c-0.19-1.04-0.37-2.09-0.56-3.13c-0.17-0.92-0.33-1.84-0.51-2.76c-0.03-0.15-0.08-0.3-0.12-0.45c-0.02,0-0.04,0-0.07,0
		c-1.75,11.07-3.51,22.13-5.27,33.28c-1.83-3-3.62-5.93-5.4-8.85c-0.04,0.02-0.08,0.04-0.11,0.05c0.07,1.09,0.16,2.18,0.22,3.27
		c0.07,1.14,0.12,2.27,0.18,3.41c0.06,1.17,0.12,2.34,0.18,3.52c0.06,1.14,0.12,2.27,0.17,3.41c0.05,0.98,0.08,1.96,0.12,2.93
		c0.03,0.74,0.06,1.48,0.1,2.27c-8.78-6.98-17.52-13.94-26.27-20.9c-0.02,0.02-0.04,0.04-0.06,0.05
		c5.89,13.66,11.78,27.32,17.67,40.98c-0.05,0-0.07-0.04-0.09-0.04c-1.16-0.04-2.32-0.07-3.47-0.1c-0.11,0-0.22,0-0.32,0
		c-1.07-0.07-2.14-0.14-3.21-0.2c-0.51-0.03-1.01-0.04-1.52-0.07c-0.79-0.04-1.58-0.1-2.36-0.14c-0.98-0.05-1.97-0.1-2.95-0.14
		c-1.05-0.04-2.09-0.05-3.14-0.07c-0.08,0-0.16,0-0.24,0c-0.98-0.07-1.96-0.14-2.95-0.2c-0.87-0.05-1.73-0.09-2.6-0.13
		c-0.26-0.01-0.52,0-0.78,0c-0.01,0.03-0.02,0.06-0.03,0.1c8.43,7.53,25.32,19.77,25.34,19.75L69.49,95
		c0.02,0.03,11.99-9.03,18.01-13.63c-4.5-1.14-8.9-2.26-13.32-3.38C78.72,68.69,83.25,59.41,87.82,50.04z"/>
</g>
</svg>
