<?xml version="1.0" encoding="utf-8"?>
<!-- Generator: Adobe Illustrator 27.8.1, SVG Export Plug-In . SVG Version: 6.00 Build 0)  -->
<svg version="1.1" baseProfile="tiny" id="Layer_1" xmlns="http://www.w3.org/2000/svg" xmlns:xlink="http://www.w3.org/1999/xlink"
	 x="0px" y="0px" viewBox="0 0 100 100" overflow="visible" xml:space="preserve">
<g>
	<ellipse fill="#F15A29" cx="50.56" cy="84.06" rx="46.94" ry="13.44"/>
	<g>
		<path fill="#F15A29" d="M90.77,88.65c-2.04-0.99-4.05-2.13-6.17-2.78c-4.22-1.28-8.38-0.82-12.34,1.38
			c-3.25,1.8-6.66,2.82-10.27,2.53c-1.82-0.15-3.69-0.49-5.41-1.16c-6.43-2.5-13-3.55-19.75-2.85c-9.39,0.98-18.16-1.38-26.49-6.35
			c11.99,0,23.97,0,35.96,0c0.02-0.08,0.04-0.16,0.06-0.24c-1.78-1.54-3.57-3.07-5.35-4.61C34.34,68.85,27.61,63.21,21,57.38
			C15.27,52.33,9.67,47.1,4.03,41.92c-1.52-1.4-1.9-3.38-1.16-5.29c0.7-1.8,2.33-2.86,4.08-2.47c0.81,0.18,1.55,0.73,2.39,1.14
			c-0.5-6.76,0.19-13.4,1.79-20.17c7.11,6.92,14.13,13.75,21.24,20.67c2.02-2.85,4.01-5.65,6.05-8.53c-0.92-0.91-1.81-1.8-2.74-2.72
			c0.72-0.97,1.39-1.88,2.15-2.9c3.27,3.17,6.52,6.32,9.83,9.53C55.6,21.63,63.49,12.1,71.45,2.5c0.93,1.01,1.83,1.95,2.68,2.96
			c0.18,0.22,0.85,0.45,0.86,0.82c0.03,1.05,1.65,1.51,1.77,2.54c0.05,0.39,0.49,0.9,0.85,1.04c1.84,0.72,12.55,13.82,13.29,16.06
			c-2.35-0.39-10.59,6.77-12.69,6.32c-0.42-0.09-0.75-0.77-1.1-1.2c-0.4-0.48-13.12-11.57-13.57-12.15
			c-6.31,7.61-6.46,7.71-12.76,15.3c1.69,1.65,3.33,3.25,5.01,4.89c-2.75,3.81-5.47,7.57-8.24,11.41c0.99,1.07,1.82,2.22,3.43,2.02
			c1.4-0.17,2.84,0.01,4.25-0.06c0.4-0.02,0.89-0.27,1.15-0.61c1.26-1.63,2.46-3.32,3.72-5.05c0.89,0.9,1.76,1.69,2.52,2.59
			c0.26,0.31,0.35,0.88,0.39,1.34c0.2,2.34,0.35,4.69,0.55,7.04c0.03,0.34,0.19,0.77,0.42,0.96c1.35,1.11,2.73,2.16,4.16,3.28
			c2.96-4.1,5.89-8.17,8.86-12.29c2.25,2.22,4.46,4.4,6.7,6.62c-2.6,3.95-5.15,7.82-7.75,11.77c1.83,1.43,3.59,2.82,5.37,4.21
			c2.39,1.87,4.77,3.75,7.19,5.58C88.95,78.21,92.92,89.69,90.77,88.65z"/>
	</g>
</g>
</svg>
